<?xml version="1.0" encoding="utf-8"?>
<!-- Generator: Adobe Illustrator 12.0.0, SVG Export Plug-In  -->
<!DOCTYPE svg PUBLIC "-//W3C//DTD SVG 1.1//EN" "http://www.w3.org/Graphics/SVG/1.1/DTD/svg11.dtd" [
	<!ENTITY ns_flows "http://ns.adobe.com/Flows/1.0/">
	<!ENTITY ns_svg "http://www.w3.org/2000/svg">
	<!ENTITY ns_xlink "http://www.w3.org/1999/xlink">
]>
<svg  version="1.1" xmlns="&ns_svg;" xmlns:xlink="&ns_xlink;" xmlns:a="http://ns.adobe.com/AdobeSVGViewerExtensions/3.0/"
	 width="470" height="490" viewBox="-106.186 -31.187 470 490" enable-background="new -106.186 -31.187 470 490"
	 xml:space="preserve">
<defs>
</defs>
<path fill="none" stroke="#000000" stroke-width="7" stroke-linecap="round" stroke-linejoin="round" d="M8.19,163.926
	L270.915,5.363c0,0,5.783-4.568,8.777,0.603s-3.811,8.709-3.811,8.709L254.926,26.65c0,0-2.993,2.178-0.816,5.988
	s4.627,10.07,4.627,10.07s-20.684,32.931-24.767,39.735s-15.729,17.891-25.039,23.95c-17.146,11.159-23.951,12.52-25.855,27.761
	c-1.905,15.241,1.089,18.779,3.811,23.134c2.721,4.354,10.069,16.874,11.975,20.412s2.449,8.98-2.994,17.418
	s-20.684,33.204-22.861,37.286s-6.259,5.716-14.152,1.089S56.521,168.718,52.166,165.997s-7.894-1.632-12.792,6.532
	c-2.994,5.171-3.266,9.525-3.266,9.525s-5.443,29.12-6.26,32.387s1.361,6.261,6.26,9.254S81.559,252,81.559,252
	s9.526,10.614,10.887,12.247s2.177,4.898-1.361,8.709s-13.608,16.602-15.786,18.507s-3.538,2.995-12.792-2.993
	s-13.608-10.071-16.33-6.805s-11.703,18.508-13.064,20.685s-1.361,4.082,0.272,9.525s6.804,22.862,7.621,25.039
	s4.627,5.171,6.804,6.804s47.356,30.754,53.888,34.837s3.539,13.063-3.266,14.152s-5.716-0.544-8.165,1.089
	s-8.709,5.443-10.342,8.981s-3.265,5.715-7.62,9.253s-7.621,6.259-9.526,7.893s-4.082-1.088-5.987-4.082
	s-30.755-48.715-41.642-101.515S4.808,221.518,7.258,210.087s7.348-20.411,9.798-25.311s-1.36-5.716-3.266-7.349
	s-5.716-4.082-8.981-6.26S5.041,166.209,8.19,163.926z"/>
<circle fill="#FFFFFF" cx="279.398" cy="5.471" r="2.8"/>
<circle fill="#FFFFFF" cx="253.493" cy="28.581" r="2.8"/>
<circle fill="#FFFFFF" cx="258.525" cy="42.744" r="2.8"/>
<circle fill="#FFFFFF" cx="183.232" cy="133.692" r="2.8"/>
<circle fill="#FFFFFF" cx="200.191" cy="182.521" r="2.8"/>
<circle fill="#FFFFFF" cx="166.832" cy="236.381" r="2.8"/>
<circle fill="#FFFFFF" cx="47.742" cy="164.629" r="2.8"/>
<circle fill="#FFFFFF" cx="30.037" cy="217.931" r="2.8"/>
<circle fill="#FFFFFF" cx="17.55" cy="181.403" r="2.8"/>
<circle fill="#FFFFFF" cx="3.572" cy="169.289" r="2.8"/>
<circle fill="#FFFFFF" cx="93.588" cy="267.692" r="2.8"/>
<circle fill="#FFFFFF" cx="72.342" cy="293.224" r="2.8"/>
<circle fill="#FFFFFF" cx="47.742" cy="280.55" r="2.8"/>
<circle fill="#FFFFFF" cx="32.087" cy="304.964" r="2.8"/>
<circle fill="#FFFFFF" cx="41.405" cy="337.952" r="2.8"/>
<circle fill="#FFFFFF" cx="105.33" cy="386.035" r="2.8"/>
<circle fill="#FFFFFF" cx="91.539" cy="393.302" r="2.8"/>
<circle fill="#FFFFFF" cx="61.347" cy="420.326" r="2.8"/>
<rect x="140.178" y="215.534" transform="matrix(-0.5418 0.8405 -0.8405 -0.5418 400.5266 215.4306)" fill="#FFFFFF" width="2.725" height="2.718"/>
<rect x="138.688" y="217.837" transform="matrix(-0.5431 0.8396 -0.8396 -0.5431 400.1649 220.6649)" width="2.724" height="2.723"/>
<rect x="137.202" y="220.14" transform="matrix(-0.5423 0.8402 -0.8402 -0.5423 399.8059 225.2152)" fill="#FFFFFF" width="2.72" height="2.723"/>
<rect x="135.709" y="222.449" transform="matrix(-0.5418 0.8405 -0.8405 -0.5418 399.4535 229.8699)" width="2.727" height="2.725"/>
<polygon fill="#FFFFFF" points="135.986,227.995 137.466,225.708 135.175,224.231 133.701,226.522 "/>
<rect x="132.732" y="227.061" transform="matrix(-0.5431 0.8396 -0.8396 -0.5431 398.7192 239.8998)" width="2.724" height="2.724"/>
<rect x="131.245" y="229.366" transform="matrix(-0.5417 0.8406 -0.8406 -0.5417 398.3814 244.2536)" fill="#FFFFFF" width="2.722" height="2.723"/>
<polygon points="131.52,234.915 133,232.631 130.71,231.152 129.235,233.441 "/>
<polygon points="144.25,220.263 145.728,217.971 143.439,216.5 141.961,218.787 "/>
<polygon fill="#FFFFFF" points="142.76,222.57 144.235,220.281 141.949,218.802 140.476,221.091 "/>
<rect x="139.505" y="221.632" transform="matrix(-0.5431 0.8397 -0.8397 -0.5431 404.6105 225.8176)" width="2.721" height="2.722"/>
<rect x="138.015" y="223.938" transform="matrix(-0.5422 0.8402 -0.8402 -0.5422 404.2539 230.3535)" fill="#FFFFFF" width="2.723" height="2.723"/>
<rect x="136.527" y="226.24" transform="matrix(-0.543 0.8397 -0.8397 -0.543 403.8877 235.4075)" width="2.724" height="2.726"/>
<polygon fill="#FFFFFF" points="136.806,231.792 138.279,229.506 135.998,228.027 134.519,230.315 "/>
<rect x="133.547" y="230.854" transform="matrix(-0.5416 0.8406 -0.8406 -0.5416 403.1844 244.5906)" width="2.724" height="2.725"/>
<rect x="132.061" y="233.162" transform="matrix(-0.5416 0.8406 -0.8406 -0.5416 402.8324 249.3949)" fill="#FFFFFF" width="2.724" height="2.722"/>
<polygon fill="#FFFFFF" points="146.557,221.75 148.031,219.464 145.748,217.985 144.264,220.273 "/>
<rect x="141.658" y="213.239" transform="matrix(-0.5426 0.84 -0.84 -0.5426 400.8831 210.8926)" width="2.722" height="2.723"/>
<rect x="143.966" y="214.727" transform="matrix(-0.5415 0.8407 -0.8407 -0.5415 405.6852 210.9233)" fill="#FFFFFF" width="2.72" height="2.72"/>
<rect x="146.267" y="216.215" transform="matrix(-0.5431 0.8397 -0.8397 -0.5431 410.4965 211.7699)" width="2.723" height="2.723"/>
<rect x="143.304" y="220.812" transform="matrix(-0.5424 0.8401 -0.8401 -0.5424 409.7798 221.1355)" width="2.719" height="2.721"/>
<rect x="141.809" y="223.12" transform="matrix(-0.5419 0.8404 -0.8404 -0.5419 409.419 225.8111)" fill="#FFFFFF" width="2.724" height="2.721"/>
<rect x="140.321" y="225.425" transform="matrix(-0.5426 0.84 -0.84 -0.5426 409.0575 230.8288)" width="2.724" height="2.722"/>
<rect x="138.834" y="227.731" transform="matrix(-0.5418 0.8405 -0.8405 -0.5418 408.7053 235.364)" fill="#FFFFFF" width="2.721" height="2.721"/>
<rect x="137.345" y="230.038" transform="matrix(-0.542 0.8404 -0.8404 -0.542 408.3454 240.2533)" width="2.722" height="2.72"/>
<polygon fill="#FFFFFF" points="137.621,235.587 139.098,233.301 136.81,231.823 135.338,234.111 "/>
<rect x="134.366" y="234.648" transform="matrix(-0.5431 0.8397 -0.8397 -0.5431 407.6117 250.2069)" width="2.723" height="2.723"/>
</svg>
